<?xml version="1.0" standalone="no"?>
<!DOCTYPE svg PUBLIC "-//W3C//DTD SVG 20010904//EN"
 "http://www.w3.org/TR/2001/REC-SVG-20010904/DTD/svg10.dtd">
<svg version="1.0" xmlns="http://www.w3.org/2000/svg"
 width="742.000000pt" height="742.000000pt" viewBox="0 0 742.000000 742.000000"
 preserveAspectRatio="xMidYMid meet">
<metadata>
Created by potrace 1.11, written by Peter Selinger 2001-2013
</metadata>
<g transform="translate(0.000000,742.000000) scale(0.100000,-0.100000)"
fill="#000000" stroke="none">
<path d="M3670 5229 c-151 -12 -194 -17 -302 -39 -191 -39 -387 -114 -541
-206 -61 -37 -219 -151 -267 -193 -55 -48 -210 -205 -210 -213 0 -4 523 -8
1163 -7 1098 0 1548 -4 1626 -17 51 -8 116 -44 211 -116 47 -34 102 -75 123
-89 l38 -26 -133 -90 c-73 -50 -171 -109 -217 -132 l-84 -43 -1936 -2 c-1065
-1 -1954 -5 -1976 -9 -208 -40 -263 -53 -353 -82 -178 -60 -347 -151 -507
-274 -55 -43 -248 -228 -290 -279 l-19 -23 2324 3 c1279 2 2462 5 2630 8 273
5 314 8 387 28 168 45 409 172 529 278 12 11 36 33 55 49 129 114 226 276 277
460 27 95 23 343 -7 460 -83 322 -259 476 -620 542 -73 14 -213 16 -946 18
-473 1 -903 -2 -955 -6z"/>
<path d="M2095 2831 c-9 -16 -55 -141 -55 -151 0 -5 19 -18 43 -29 23 -11 114
-54 202 -96 88 -43 196 -94 240 -115 44 -20 127 -60 185 -88 58 -27 167 -80
244 -116 l138 -66 1556 0 1556 0 156 51 c392 128 520 174 609 219 119 60 221
131 300 210 63 63 141 162 141 180 0 13 -5306 14 -5315 1z"/>
</g>
</svg>
