<svg xmlns="http://www.w3.org/2000/svg" viewBox="0 0 179.94 157.88"><defs><style>.cls-1{fill:#cdcdcd;}</style></defs><title>Asset 2octa</title><g id="Layer_2" data-name="Layer 2"><g id="Layer_1-2" data-name="Layer 1"><path class="cls-1" d="M96.06,98.49c.72-26.32,13.13-50.24,33.17-70.41,7.46-7.51,16-14.1,24.56-20.33C158.4,4.4,164.06,2.26,169.55.53c2.3-.72,5.37,1,8.1,1.66a69.53,69.53,0,0,1-2.61,8c-.57,1.25-2.17,2-3.21,3.09-15.89,16.4-26.49,35.4-27.9,58.62-.61,10.11,3,15.31,12.45,19.24,13.84,5.73,22.13,15.58,23.42,30.76,1.9,22.24-16.3,38.91-38.71,35.53C113.07,153.2,95.33,131.09,96.06,98.49Z"/><path class="cls-1" d="M0,99.28C.62,72.13,13.49,48,33.77,27.29c9.36-9.56,19.5-18.23,31.72-24A35.16,35.16,0,0,1,76.87,0c4.62-.44,6.66,3.3,4.23,7.3-1.35,2.22-3.46,4-5.3,5.88C59.93,29.64,49.3,48.61,47.86,71.83c-.62,10.1,3,15.31,12.37,19.29,12.5,5.28,20.84,13.77,23.06,27.75C87,142.4,68.79,161,45.11,157.44,17.24,153.26-.44,131.46,0,99.28Z"/></g></g></svg>